<svg width="24" height="24" viewBox="0 0 24 24" fill="none" xmlns="http://www.w3.org/2000/svg">
<g clip-path="url(#clip0_219_1483)">
<path d="M3 19C4.36817 18.2101 5.92017 17.7942 7.5 17.7942C9.07983 17.7942 10.6318 18.2101 12 19C13.3682 18.2101 14.9202 17.7942 16.5 17.7942C18.0798 17.7942 19.6318 18.2101 21 19" stroke="#5762F7" stroke-width="1.5" stroke-linecap="round" stroke-linejoin="round"/>
<path d="M3 5.99999C4.36817 5.21008 5.92017 4.79422 7.5 4.79422C9.07983 4.79422 10.6318 5.21008 12 5.99999C13.3682 5.21008 14.9202 4.79422 16.5 4.79422C18.0798 4.79422 19.6318 5.21008 21 5.99999" stroke="#5762F7" stroke-width="1.5" stroke-linecap="round" stroke-linejoin="round"/>
<path d="M3 6V19" stroke="#5762F7" stroke-width="1.5" stroke-linecap="round" stroke-linejoin="round"/>
<path d="M12 6V19" stroke="#5762F7" stroke-width="1.5" stroke-linecap="round" stroke-linejoin="round"/>
<path d="M21 6V19" stroke="#5762F7" stroke-width="1.5" stroke-linecap="round" stroke-linejoin="round"/>
</g>
<defs>
<clipPath id="clip0_219_1483">
<rect width="24" height="24" fill="white"/>
</clipPath>
</defs>
</svg>
