<svg width="30" height="32" viewBox="0 0 30 32" fill="none" xmlns="http://www.w3.org/2000/svg">
<path d="M9.06079 22.6616L8.11792 24.5475H9.95054C10.2617 24.5475 10.5507 24.7086 10.7142 24.9732C10.8777 25.2378 10.8927 25.5684 10.7534 25.8467L9.42561 28.5025L14.1022 32.0001V29.4595L10.4296 22.114L9.06079 22.6616Z" fill="#5762F7"/>
<path d="M7.5051 28.3289L8.49807 26.3429H6.66556C6.35439 26.3429 6.06542 26.1818 5.90187 25.9172C5.73842 25.6526 5.72344 25.3221 5.86265 25.0439L6.552 23.6652L5.92514 23.9159C3.3979 24.9268 1.49492 27.1069 0.834663 29.7475L0.271484 32H10.7663L7.72641 29.4142C7.41168 29.1464 7.32043 28.6984 7.5051 28.3289Z" fill="#5762F7"/>
<path d="M29.1655 29.7475C28.5053 27.1068 26.6023 24.9267 24.075 23.9159L23.4482 23.6652L24.1375 25.0439C24.2767 25.3221 24.2618 25.6526 24.0983 25.9172C23.9347 26.1818 23.6457 26.3429 23.3346 26.3429H21.502L22.495 28.3289C22.6798 28.6985 22.5885 29.1464 22.2738 29.4142L19.2339 32H29.7285L29.1655 29.7475Z" fill="#5762F7"/>
<path d="M19.2466 25.8467C19.1074 25.5684 19.1224 25.2378 19.2858 24.9732C19.4495 24.7086 19.7385 24.5475 20.0495 24.5475H21.8821L20.9393 22.6616L19.5705 22.114L15.8977 29.4595V32L20.5744 28.5025L19.2466 25.8467Z" fill="#5762F7"/>
<path d="M8.2562 4.89999C8.33733 4.64194 8.53052 4.43432 8.78188 4.33476C9.03304 4.23499 9.31608 4.25406 9.55215 4.38659C9.62617 4.42807 16.8571 8.42925 24.0887 8.2602C24.1227 7.87954 24.1405 7.50298 24.1405 7.13277C24.1405 4.56663 23.3064 2.74737 21.5905 1.57112C20.0698 0.528593 17.8525 0 15.0001 0C12.1477 0 9.93054 0.528593 8.40984 1.57112C6.69391 2.74737 5.85986 4.56663 5.85986 7.13277C5.85986 7.39502 5.86891 7.6605 5.88615 7.92824C7.65865 6.73789 8.24973 4.92035 8.2562 4.89999Z" fill="#5762F7"/>
<path d="M15 22.0838C14.0197 22.0838 13.0493 21.8704 12.1089 21.4578L15 27.2401L17.8912 21.4578C16.9508 21.8704 15.9803 22.0838 15 22.0838Z" fill="#5762F7"/>
<path d="M6.14575 9.85567C7.18182 14.9995 10.899 20.2883 15.0001 20.2883C19.0472 20.2883 22.7201 15.1393 23.812 10.0605C23.828 10.0604 23.844 10.0603 23.812 10.0603C17.7099 10.0603 11.7073 7.48487 9.54723 6.40894C9.0334 7.39307 7.99443 8.89912 6.14575 9.85567Z" fill="#5762F7"/>
</svg>
