<svg width="20" height="17" viewBox="0 0 20 17" fill="none" xmlns="http://www.w3.org/2000/svg">
<path d="M20 1.00904C19 1.49904 18.02 1.69804 17 1.99904C15.879 0.734037 14.217 0.664037 12.62 1.26204C11.023 1.86004 9.977 3.32204 10 4.99904V5.99904C6.755 6.08204 3.865 4.60404 2 1.99904C2 1.99904 -2.182 9.43204 6 12.999C4.128 14.246 2.261 15.087 0 14.999C3.308 16.802 6.913 17.422 10.034 16.516C13.614 15.476 16.556 12.793 17.685 8.77404C18.0218 7.55171 18.189 6.2889 18.182 5.02104C18.18 4.77204 19.692 2.24904 20 1.00804V1.00904Z" fill="white"/>
</svg>
