<svg width="32" height="32" viewBox="0 0 32 32" fill="none" xmlns="http://www.w3.org/2000/svg">
<path d="M4.89491 3.77637C4.89405 3.77637 4.89308 3.77637 4.89222 3.77637C4.58957 3.77637 4.3049 3.89435 4.08995 4.10876C3.87263 4.32554 3.75293 4.61419 3.75293 4.92148V22.0922C3.75293 22.7218 4.26719 23.2353 4.89944 23.237C7.56482 23.2433 12.0304 23.7988 15.111 27.0227V9.05305C15.111 8.8396 15.0565 8.63909 14.9536 8.47316C12.4252 4.40129 7.56633 3.78262 4.89491 3.77637Z" fill="#5762F7"/>
<path d="M28.2476 22.0922V4.92135C28.2476 4.61407 28.1279 4.32542 27.9106 4.10864C27.6957 3.89423 27.4108 3.77625 27.1085 3.77625C27.1075 3.77625 27.1065 3.77625 27.1057 3.77625C24.4343 3.7826 19.5755 4.40127 17.047 8.47315C16.9441 8.63908 16.8896 8.83959 16.8896 9.05303V27.0225C19.9703 23.7987 24.4359 23.2432 27.1012 23.2368C27.7334 23.2352 28.2476 22.7217 28.2476 22.0922Z" fill="#5762F7"/>
<path d="M30.8554 7.73621H30.0252V22.0922C30.0252 23.6998 28.7153 25.0108 27.1052 25.0148C24.8444 25.0201 21.1166 25.4622 18.4766 27.9609C23.0426 26.843 27.8559 27.5697 30.5991 28.1948C30.9416 28.2728 31.2956 28.1922 31.57 27.9735C31.8434 27.7553 32.0003 27.4292 32.0003 27.0791V8.8811C32.0004 8.24982 31.4867 7.73621 30.8554 7.73621Z" fill="#5762F7"/>
<path d="M1.97517 22.0922V7.73621H1.14489C0.513726 7.73621 0 8.24982 0 8.8811V27.0788C0 27.429 0.156876 27.755 0.430331 27.9732C0.704541 28.1918 1.05816 28.2727 1.40122 28.1945C4.14439 27.5693 8.95788 26.8426 13.5237 27.9606C10.8837 25.462 7.15596 25.02 4.89515 25.0146C3.28513 25.0108 1.97517 23.6998 1.97517 22.0922Z" fill="#5762F7"/>
</svg>
