<svg width="20" height="18" viewBox="0 0 20 18" fill="none" xmlns="http://www.w3.org/2000/svg">
<path d="M4.9375 2.001C4.93724 2.53143 4.72627 3.04004 4.35101 3.41492C3.97575 3.78981 3.46693 4.00027 2.9365 4C2.40607 3.99973 1.89746 3.78877 1.52258 3.41351C1.14769 3.03825 0.937235 2.52943 0.9375 1.999C0.937765 1.46857 1.14873 0.959965 1.52399 0.585079C1.89925 0.210194 2.40807 -0.000264966 2.9385 2.50361e-07C3.46893 0.000265467 3.97754 0.211233 4.35242 0.586494C4.72731 0.961754 4.93777 1.47057 4.9375 2.001ZM4.9975 5.481H0.9975V18.001H4.9975V5.481ZM11.3175 5.481H7.3375V18.001H11.2775V11.431C11.2775 7.771 16.0475 7.431 16.0475 11.431V18.001H19.9975V10.071C19.9975 3.901 12.9375 4.131 11.2775 7.161L11.3175 5.481Z" fill="white"/>
</svg>
