<svg width="194" height="24" viewBox="0 0 194 24" fill="none" xmlns="http://www.w3.org/2000/svg">
<g clip-path="url(#clip0_215_928)">
<path d="M35.4716 23.7558H27.589C27.589 14.9563 20.5169 7.79736 11.824 7.79736V-0.181885C18.1405 -0.181885 24.0789 2.30808 28.5453 6.82933C33.0118 11.3505 35.4716 17.3618 35.4716 23.7558Z" fill="#5762F7"/>
<path d="M59.1193 23.7558H51.2367C51.2367 14.9563 44.1646 7.79736 35.4717 7.79736V-0.181885C41.7882 -0.181885 47.7266 2.30808 52.193 6.82933C56.6595 11.3505 59.1193 17.3618 59.1193 23.7558Z" fill="#5762F7"/>
<path d="M7.88275 -0.182373H0V23.7554H7.88275V-0.182373Z" fill="#5762F7"/>
<path d="M70.699 3.76148H74.9557V6.46883H75.1986C75.8185 5.48504 76.6832 4.67749 77.7928 4.0481C78.8986 3.42064 80.0732 3.10498 81.3168 3.10498C82.8013 3.10498 84.0793 3.45357 85.1468 4.15073C86.2143 4.84791 86.9911 5.7581 87.477 6.87939C88.1504 5.81233 89.0572 4.91763 90.1917 4.19141C91.3262 3.46713 92.6902 3.10498 94.2839 3.10498C95.5006 3.10498 96.5528 3.30445 97.4443 3.69951C98.3358 4.09651 99.0724 4.65038 99.654 5.3611C100.234 6.07183 100.674 6.9278 100.972 7.92514C101.267 8.92442 101.416 10.038 101.416 11.2677V23.8613H96.9201V12.0481C96.9201 10.2975 96.5872 9.07354 95.9253 8.37637C95.2634 7.6792 94.2992 7.33061 93.0289 7.33061C92.298 7.33061 91.6438 7.49328 91.0622 7.8225C90.4806 8.14979 89.9889 8.5952 89.5852 9.15488C89.1797 9.71648 88.8678 10.3652 88.6516 11.1031C88.4355 11.8429 88.3283 12.6214 88.3283 13.4425V23.8613H83.8306V12.0481C83.8306 10.2975 83.4862 9.07354 82.7975 8.37637C82.1088 7.6792 81.114 7.33061 79.8169 7.33061C79.1148 7.33061 78.4815 7.49328 77.9133 7.8225C77.3451 8.14979 76.8592 8.5952 76.4536 9.15488C76.048 9.71648 75.7381 10.3652 75.5239 11.1031C75.3058 11.8429 75.1986 12.6214 75.1986 13.4425V23.8613H70.699V3.76148Z" fill="#5762F7"/>
<path d="M124.122 18.4086C123.286 19.9676 122.097 21.267 120.556 22.305C119.017 23.3431 117.125 23.864 114.885 23.864C113.397 23.864 112.027 23.5968 110.772 23.0642C109.513 22.5316 108.426 21.786 107.508 20.8274C106.59 19.8708 105.874 18.7437 105.362 17.4442C104.847 16.1448 104.591 14.7156 104.591 13.1566C104.591 11.708 104.834 10.335 105.319 9.03556C105.805 7.73611 106.488 6.60127 107.367 5.63104C108.245 4.66081 109.304 3.88618 110.548 3.31295C111.79 2.73778 113.167 2.45117 114.682 2.45117C116.22 2.45117 117.592 2.71067 118.795 3.22968C119.997 3.75062 121.015 4.4749 121.853 5.40446C122.691 6.33402 123.333 7.45531 123.777 8.76831C124.225 10.0813 124.447 11.5163 124.447 13.0753C124.447 13.2128 124.447 13.3348 124.447 13.4452C124.42 13.5827 124.407 13.7047 124.407 13.8131C124.378 13.9235 124.366 14.0339 124.366 14.1423H109.088C109.169 15.099 109.398 15.9337 109.777 16.6444C110.156 17.3551 110.623 17.9439 111.176 18.4086C111.728 18.8734 112.344 19.2143 113.02 19.4331C113.695 19.6519 114.357 19.7623 115.006 19.7623C116.301 19.7623 117.368 19.4486 118.206 18.8192C119.044 18.1898 119.733 17.4094 120.272 16.4798L124.122 18.4086ZM119.949 10.6545C119.894 10.2459 119.767 9.78696 119.565 9.28151C119.362 8.77606 119.052 8.31128 118.631 7.88716C118.214 7.46306 117.672 7.10091 117.012 6.7988C116.349 6.49863 115.545 6.34758 114.6 6.34758C113.303 6.34758 112.188 6.73877 111.258 7.51728C110.324 8.29578 109.697 9.34348 109.371 10.6545H119.949Z" fill="#5762F7"/>
<path d="M131.877 6.46883H132.118C132.713 5.51216 133.557 4.71235 134.651 4.0694C135.746 3.42645 136.981 3.10498 138.359 3.10498C140.873 3.10498 142.75 3.86413 143.991 5.38241C145.235 6.89875 145.856 8.91667 145.856 11.4323V23.8613H141.359V12.0481C141.359 10.2975 140.961 9.07354 140.163 8.37637C139.365 7.6792 138.319 7.33061 137.024 7.33061C136.239 7.33061 135.55 7.49328 134.955 7.8225C134.361 8.14979 133.848 8.5952 133.415 9.15488C132.983 9.71648 132.658 10.3594 132.444 11.0837C132.225 11.808 132.118 12.5671 132.118 13.3592V23.8613H127.621V3.76148H131.877V6.46883Z" fill="#5762F7"/>
<path d="M152.515 7.12553H149.031V3.10517H152.515V-3.04736H157.013V3.10517H161.916V7.12553H157.013V16.3088C157.013 16.8162 157.066 17.279 157.175 17.7012C157.283 18.1215 157.445 18.472 157.661 18.7528C158.12 19.2873 158.7 19.5545 159.404 19.5545C159.837 19.5545 160.173 19.5197 160.418 19.4519C160.659 19.3841 160.916 19.2815 161.187 19.144L162.565 23.1643C161.998 23.3832 161.403 23.5536 160.782 23.6775C160.16 23.7995 159.458 23.8615 158.673 23.8615C157.728 23.8615 156.89 23.7066 156.163 23.4006C155.433 23.0946 154.797 22.6763 154.258 22.1457C153.095 20.9469 152.515 19.3144 152.515 17.25V7.12553Z" fill="#5762F7"/>
<path d="M174.527 2.44849C176.04 2.44849 177.431 2.71574 178.701 3.2483C179.97 3.78086 181.064 4.52644 181.982 5.48311C182.901 6.44172 183.618 7.57656 184.131 8.88957C184.645 10.2006 184.902 11.624 184.902 13.1539C184.902 14.6858 184.645 16.1092 184.131 17.4202C183.618 18.7332 182.901 19.8681 181.982 20.8247C181.064 21.7834 179.97 22.5289 178.701 23.0615C177.431 23.5941 176.04 23.8613 174.527 23.8613C173.014 23.8613 171.623 23.5941 170.354 23.0615C169.084 22.5289 167.99 21.7834 167.072 20.8247C166.153 19.8681 165.436 18.7332 164.923 17.4202C164.408 16.1092 164.152 14.6858 164.152 13.1539C164.152 11.624 164.408 10.2006 164.923 8.88957C165.436 7.57656 166.153 6.44172 167.072 5.48311C167.99 4.52644 169.084 3.78086 170.354 3.2483C171.623 2.71574 173.014 2.44849 174.527 2.44849ZM174.527 19.6357C175.283 19.6357 176.013 19.4866 176.716 19.1845C177.418 18.8843 178.045 18.4602 178.6 17.9141C179.153 17.366 179.593 16.6901 179.916 15.8826C180.241 15.077 180.402 14.1668 180.402 13.1539C180.402 12.143 180.241 11.2348 179.916 10.4272C179.593 9.6216 179.153 8.9438 178.6 8.39574C178.045 7.84962 177.418 7.42551 176.716 7.12534C176.013 6.82517 175.283 6.67412 174.527 6.67412C173.771 6.67412 173.04 6.82517 172.34 7.12534C171.636 7.42551 171.009 7.84962 170.454 8.39574C169.901 8.9438 169.463 9.6216 169.138 10.4272C168.812 11.2348 168.652 12.143 168.652 13.1539C168.652 14.1668 168.812 15.077 169.138 15.8826C169.463 16.6901 169.901 17.366 170.454 17.9141C171.009 18.4602 171.636 18.8843 172.34 19.1845C173.04 19.4866 173.771 19.6357 174.527 19.6357Z" fill="#5762F7"/>
<path d="M189.607 23.8614C188.742 23.8614 188.008 23.5651 187.399 22.9744C186.791 22.3818 186.489 21.6653 186.489 20.8248C186.489 19.9843 186.791 19.262 187.399 18.6558C188.008 18.0516 188.742 17.7495 189.607 17.7495C190.472 17.7495 191.214 18.0516 191.838 18.6558C192.458 19.262 192.77 19.9843 192.77 20.8248C192.77 21.6653 192.458 22.3818 191.838 22.9744C191.214 23.5651 190.472 23.8614 189.607 23.8614Z" fill="#5762F7"/>
</g>
<defs>
<clipPath id="clip0_215_928">
<rect width="194" height="23.8986" fill="white"/>
</clipPath>
</defs>
</svg>
