<svg width="138" height="17" viewBox="0 0 138 17" fill="none" xmlns="http://www.w3.org/2000/svg">
<g clip-path="url(#clip0_215_1128)">
<path d="M25.2326 16.8982H19.6255C19.6255 10.6388 14.5947 5.54632 8.41113 5.54632V-0.129639C12.9043 -0.129639 17.1286 1.64158 20.3057 4.85772C23.4829 8.07383 25.2326 12.3499 25.2326 16.8982Z" fill="white"/>
<path d="M42.0539 16.8985H36.4467C36.4467 10.639 31.416 5.54656 25.2324 5.54656V-0.129395C29.7256 -0.129395 33.9499 1.64182 37.127 4.85796C40.3042 8.07408 42.0539 12.3502 42.0539 16.8985Z" fill="white"/>
<path d="M5.60732 -0.129639H0V16.8983H5.60732V-0.129639Z" fill="white"/>
<path d="M50.291 2.67574H53.319V4.60158H53.4918C53.9327 3.90177 54.5478 3.32733 55.3371 2.87962C56.1237 2.43328 56.9593 2.20874 57.8439 2.20874C58.8999 2.20874 59.809 2.4567 60.5683 2.95263C61.3277 3.44855 61.8802 4.09601 62.2259 4.89363C62.7049 4.13459 63.35 3.49815 64.157 2.98156C64.964 2.46635 65.9343 2.20874 67.0679 2.20874C67.9334 2.20874 68.6819 2.35063 69.3161 2.63165C69.9502 2.91406 70.4742 3.30804 70.8879 3.81361C71.3002 4.31918 71.6132 4.92807 71.8255 5.63752C72.0351 6.34834 72.1412 7.14044 72.1412 8.0152V16.9736H68.9432V8.57036C68.9432 7.32504 68.7064 6.45442 68.2355 5.95849C67.7647 5.46257 67.0788 5.2146 66.1752 5.2146C65.6553 5.2146 65.1899 5.33032 64.7762 5.5645C64.3625 5.79732 64.0127 6.11416 63.7256 6.51228C63.4371 6.91177 63.2152 7.37325 63.0615 7.89811C62.9077 8.42434 62.8315 8.97813 62.8315 9.56221V16.9736H59.6321V8.57036C59.6321 7.32504 59.3871 6.45442 58.8972 5.95849C58.4073 5.46257 57.6996 5.2146 56.7769 5.2146C56.2775 5.2146 55.8271 5.33032 55.4229 5.5645C55.0187 5.79732 54.673 6.11416 54.3845 6.51228C54.096 6.91177 53.8756 7.37325 53.7231 7.89811C53.568 8.42434 53.4918 8.97813 53.4918 9.56221V16.9736H50.291V2.67574Z" fill="white"/>
<path d="M88.2926 13.0948C87.6979 14.2038 86.8528 15.1281 85.7559 15.8665C84.6618 16.6049 83.3159 16.9755 81.7223 16.9755C80.6635 16.9755 79.6891 16.7854 78.7964 16.4065C77.9009 16.0277 77.128 15.4973 76.4748 14.8154C75.8215 14.1349 75.3126 13.3332 74.9478 12.4088C74.5818 11.4845 74.3994 10.4678 74.3994 9.35886C74.3994 8.32844 74.5722 7.35175 74.9179 6.42739C75.2636 5.50304 75.7494 4.69578 76.374 4.00562C76.9987 3.31546 77.7526 2.76443 78.6372 2.35667C79.5204 1.94753 80.5002 1.74365 81.578 1.74365C82.6722 1.74365 83.6479 1.92825 84.5039 2.29743C85.3585 2.668 86.0825 3.18321 86.6786 3.84444C87.2747 4.50568 87.7319 5.3033 88.0476 6.23729C88.3661 7.17128 88.5239 8.19206 88.5239 9.30101C88.5239 9.39881 88.5239 9.48561 88.5239 9.56412C88.5049 9.66193 88.4954 9.74872 88.4954 9.82586C88.475 9.90439 88.4668 9.98291 88.4668 10.0601H77.5988C77.656 10.7406 77.8193 11.3343 78.0887 11.8399C78.3582 12.3454 78.6903 12.7642 79.0835 13.0948C79.4768 13.4255 79.915 13.6679 80.3954 13.8236C80.8758 13.9792 81.3467 14.0578 81.808 14.0578C82.7293 14.0578 83.4887 13.8346 84.0848 13.3869C84.6808 12.9392 85.1707 12.384 85.5545 11.7228L88.2926 13.0948ZM85.3245 7.57904C85.2851 7.28838 85.1952 6.96189 85.051 6.60234C84.9067 6.2428 84.6863 5.91218 84.3869 5.61049C84.0902 5.30881 83.7051 5.0512 83.2356 4.8363C82.7634 4.62277 82.1918 4.51532 81.5195 4.51532C80.5968 4.51532 79.8035 4.79359 79.1421 5.34738C78.478 5.90116 78.0316 6.64643 77.8002 7.57904H85.3245Z" fill="white"/>
<path d="M93.8102 4.60158H93.9816C94.4049 3.92106 95.005 3.35212 95.7834 2.89477C96.5619 2.43742 97.441 2.20874 98.4208 2.20874C100.209 2.20874 101.544 2.74875 102.427 3.82876C103.312 4.9074 103.754 6.34283 103.754 8.1323V16.9736H100.555V8.57036C100.555 7.32504 100.272 6.45442 99.7041 5.95849C99.1366 5.46257 98.3922 5.2146 97.4709 5.2146C96.913 5.2146 96.4231 5.33032 95.9998 5.5645C95.5766 5.79732 95.2119 6.11416 94.9043 6.51228C94.5968 6.91177 94.3654 7.36912 94.213 7.88434C94.0579 8.39955 93.9816 8.93955 93.9816 9.50298V16.9736H90.7822V2.67574H93.8102V4.60158Z" fill="white"/>
<path d="M108.49 5.06866H106.012V2.20882H108.49V-2.16772H111.689V2.20882H115.177V5.06866H111.689V11.6011C111.689 11.962 111.727 12.2913 111.805 12.5916C111.881 12.8905 111.997 13.1399 112.151 13.3396C112.477 13.7198 112.89 13.9099 113.39 13.9099C113.698 13.9099 113.937 13.8851 114.112 13.8369C114.283 13.7887 114.465 13.7157 114.659 13.6179L115.639 16.4777C115.236 16.6334 114.812 16.7546 114.37 16.8428C113.928 16.9295 113.428 16.9736 112.871 16.9736C112.198 16.9736 111.602 16.8634 111.085 16.6458C110.565 16.4281 110.113 16.1306 109.73 15.7531C108.902 14.9004 108.49 13.7391 108.49 12.2706V5.06866Z" fill="white"/>
<path d="M124.148 1.74194C125.224 1.74194 126.213 1.93205 127.117 2.31088C128.019 2.68971 128.798 3.22008 129.451 3.90059C130.104 4.58249 130.614 5.38975 130.979 6.32374C131.345 7.25636 131.528 8.26888 131.528 9.35716C131.528 10.4468 131.345 11.4593 130.979 12.3919C130.614 13.3259 130.104 14.1332 129.451 14.8137C128.798 15.4956 128.019 16.026 127.117 16.4048C126.213 16.7836 125.224 16.9738 124.148 16.9738C123.071 16.9738 122.082 16.7836 121.18 16.4048C120.276 16.026 119.497 15.4956 118.844 14.8137C118.191 14.1332 117.681 13.3259 117.316 12.3919C116.95 11.4593 116.768 10.4468 116.768 9.35716C116.768 8.26888 116.95 7.25636 117.316 6.32374C117.681 5.38975 118.191 4.58249 118.844 3.90059C119.497 3.22008 120.276 2.68971 121.18 2.31088C122.082 1.93205 123.071 1.74194 124.148 1.74194ZM124.148 13.9679C124.685 13.9679 125.205 13.8618 125.704 13.6469C126.204 13.4334 126.65 13.1317 127.045 12.7432C127.438 12.3534 127.751 11.8726 127.981 11.2982C128.213 10.7251 128.327 10.0776 128.327 9.35716C128.327 8.63807 128.213 7.99198 127.981 7.41753C127.751 6.84447 127.438 6.36232 127.045 5.97247C126.65 5.58399 126.204 5.2823 125.704 5.06878C125.205 4.85525 124.685 4.74781 124.148 4.74781C123.61 4.74781 123.09 4.85525 122.592 5.06878C122.091 5.2823 121.645 5.58399 121.25 5.97247C120.857 6.36232 120.545 6.84447 120.314 7.41753C120.083 7.99198 119.968 8.63807 119.968 9.35716C119.968 10.0776 120.083 10.7251 120.314 11.2982C120.545 11.8726 120.857 12.3534 121.25 12.7432C121.645 13.1317 122.091 13.4334 122.592 13.6469C123.09 13.8618 123.61 13.9679 124.148 13.9679Z" fill="white"/>
<path d="M134.875 16.9738C134.26 16.9738 133.738 16.7631 133.305 16.3429C132.872 15.9214 132.657 15.4117 132.657 14.8138C132.657 14.2159 132.872 13.7021 133.305 13.2709C133.738 12.8411 134.26 12.6262 134.875 12.6262C135.491 12.6262 136.019 12.8411 136.462 13.2709C136.903 13.7021 137.125 14.2159 137.125 14.8138C137.125 15.4117 136.903 15.9214 136.462 16.3429C136.019 16.7631 135.491 16.9738 134.875 16.9738Z" fill="white"/>
</g>
<defs>
<clipPath id="clip0_215_1128">
<rect width="138" height="17" fill="white"/>
</clipPath>
</defs>
</svg>
