<svg width="18" height="32" viewBox="0 0 18 32" fill="none" xmlns="http://www.w3.org/2000/svg">
<path d="M14.3008 0H3.6535C1.7745 0.00213068 0.251864 1.52477 0.25 3.40376V28.5964C0.251864 30.4754 1.7745 31.998 3.6535 31.9999H14.3008C16.1798 31.998 17.7024 30.4754 17.7045 28.5964V3.40376C17.7024 1.52477 16.1798 0.00213068 14.3008 0V0ZM8.97727 29.091C8.17374 29.091 7.52255 28.4398 7.52255 27.6363C7.52255 26.833 8.17374 26.1818 8.97727 26.1818C9.78054 26.1818 10.4317 26.833 10.4317 27.6363C10.4317 28.4398 9.78054 29.091 8.97727 29.091ZM11.1591 4.36364H6.79545C6.39382 4.36364 6.06809 4.03791 6.06809 3.63628C6.06809 3.23464 6.39382 2.90918 6.79545 2.90918H11.1591C11.5607 2.90918 11.8862 3.23464 11.8862 3.63628C11.8862 4.03791 11.5607 4.36364 11.1591 4.36364Z" fill="#5762F7"/>
</svg>
