<svg width="32" height="32" viewBox="0 0 32 32" fill="none" xmlns="http://www.w3.org/2000/svg">
<g clip-path="url(#clip0_373_2084)">
<path d="M4.6875 16.0625H9.0625V17.9375H4.6875V16.0625Z" fill="#5762F7"/>
<path d="M24.0625 11.375H2.8125C1.26169 11.375 0 12.6367 0 14.1875V29.1875C0 30.7384 1.26169 32 2.8125 32H24.0625C25.6133 32 26.875 30.7384 26.875 29.1875V14.1875C26.875 12.6367 25.6133 11.375 24.0625 11.375ZM2.8125 15.125C2.8125 14.6073 3.23225 14.1875 3.75 14.1875H10C10.5177 14.1875 10.9375 14.6073 10.9375 15.125V18.875C10.9375 19.3928 10.5177 19.8125 10 19.8125H3.75C3.23225 19.8125 2.8125 19.3928 2.8125 18.875V15.125ZM3.75 23.5625H5.625C6.14275 23.5625 6.5625 23.9823 6.5625 24.5C6.5625 25.0178 6.14275 25.4375 5.625 25.4375H3.75C3.23225 25.4375 2.8125 25.0178 2.8125 24.5C2.8125 23.9823 3.23225 23.5625 3.75 23.5625ZM10 29.1875H3.75C3.23225 29.1875 2.8125 28.7678 2.8125 28.25C2.8125 27.7323 3.23225 27.3125 3.75 27.3125H10C10.5177 27.3125 10.9375 27.7323 10.9375 28.25C10.9375 28.7678 10.5177 29.1875 10 29.1875ZM11.25 25.4375H9.375C8.85725 25.4375 8.4375 25.0178 8.4375 24.5C8.4375 23.9823 8.85725 23.5625 9.375 23.5625H11.25C11.7677 23.5625 12.1875 23.9823 12.1875 24.5C12.1875 25.0178 11.7677 25.4375 11.25 25.4375ZM16.875 25.4375H15C14.4823 25.4375 14.0625 25.0178 14.0625 24.5C14.0625 23.9823 14.4823 23.5625 15 23.5625H16.875C17.3927 23.5625 17.8125 23.9823 17.8125 24.5C17.8125 25.0178 17.3927 25.4375 16.875 25.4375ZM23.125 19.8125H20C19.4823 19.8125 19.0625 19.3928 19.0625 18.875C19.0625 18.3573 19.4823 17.9375 20 17.9375H23.125C23.6427 17.9375 24.0625 18.3573 24.0625 18.875C24.0625 19.3928 23.6427 19.8125 23.125 19.8125ZM23.125 16.0625H20C19.4823 16.0625 19.0625 15.6428 19.0625 15.125C19.0625 14.6073 19.4823 14.1875 20 14.1875H23.125C23.6427 14.1875 24.0625 14.6073 24.0625 15.125C24.0625 15.6428 23.6427 16.0625 23.125 16.0625Z" fill="#5762F7"/>
<path d="M31.9028 16.5739L30.0425 9.6313L26.9121 10.4701C28.0279 11.3277 28.7489 12.6747 28.7489 14.1876V20.3306L29.914 20.0184C31.412 19.6171 32.3042 18.0718 31.9028 16.5739Z" fill="#5762F7"/>
<path d="M23.2894 9.50005L29.5586 7.82024L29.0733 6.00911L16.0449 9.50005H23.2894Z" fill="#5762F7"/>
<path d="M2.18601 9.50005H8.80095L28.5884 4.19798L28.0222 2.08492C27.6208 0.586985 26.0756 -0.305203 24.5776 0.0962346L4.0517 5.59611C2.5537 5.99748 1.66157 7.54273 2.06295 9.04073L2.18601 9.50005Z" fill="#5762F7"/>
</g>
<defs>
<clipPath id="clip0_373_2084">
<rect width="32" height="32" fill="white"/>
</clipPath>
</defs>
</svg>
