<svg width="84" height="84" viewBox="0 0 84 84" fill="none" xmlns="http://www.w3.org/2000/svg">
<path d="M44.7639 71.6667C63.2678 71.6667 78.2681 56.6663 78.2681 38.1625C78.2681 19.6586 63.2678 4.65833 44.7639 4.65833C26.2601 4.65833 11.2598 19.6586 11.2598 38.1625C11.2598 56.6663 26.2601 71.6667 44.7639 71.6667Z" fill="#FFE500"/>
<path d="M44.7639 4.65833C26.3098 4.65833 11.2598 19.7083 11.2598 38.1625C11.2598 56.6167 26.3098 71.6667 44.7639 71.6667C63.2181 71.6667 78.2681 56.6167 78.2681 38.1625C78.2681 19.7083 63.2181 4.65833 44.7639 4.65833ZM44.7639 66.65C27.9223 66.65 14.3056 53.0333 14.3056 36.1917C14.3056 19.35 27.9223 5.73333 44.7639 5.73333C61.6056 5.73333 75.2223 19.35 75.2223 36.1917C75.2223 52.8542 61.6056 66.65 44.7639 66.65Z" fill="#EBCB00"/>
<path d="M44.7638 13.975C50.3051 13.975 54.7971 12.852 54.7971 11.4667C54.7971 10.0814 50.3051 8.95834 44.7638 8.95834C39.2225 8.95834 34.7305 10.0814 34.7305 11.4667C34.7305 12.852 39.2225 13.975 44.7638 13.975Z" fill="#FFF48C"/>
<path d="M11.3822 68.4939C11.6434 67.5234 12.4273 66.6743 13.6031 66.4317L18.0449 65.4612C18.1756 65.4612 18.3062 65.3399 18.3062 65.0972C18.3062 64.9759 18.1756 64.8546 18.0449 64.7333L13.6031 63.7628C12.5579 63.5202 11.6434 62.7923 11.3822 61.7005L10.337 57.576C10.337 57.4547 10.2064 57.3333 9.9451 57.3333C9.68381 57.3333 9.68381 57.4547 9.55317 57.576L8.50803 61.7005C8.24674 62.671 7.46289 63.5202 6.28711 63.7628L1.84527 64.7333C1.71463 64.7333 1.58398 64.8546 1.58398 65.0972C1.58398 65.2185 1.71463 65.3399 1.84527 65.4612L6.28711 66.4317C7.33225 66.6743 8.24674 67.4021 8.50803 68.4939L9.55317 72.6185C9.55317 72.7398 9.68381 72.8611 9.9451 72.8611C10.2064 72.8611 10.2064 72.7398 10.337 72.6185L11.3822 68.4939V68.4939Z" fill="white" stroke="#45413C" stroke-width="1.19444" stroke-miterlimit="10" stroke-linecap="round" stroke-linejoin="round"/>
<path d="M78.518 8.85115L82.4995 7.47295C82.6526 7.47295 82.8058 7.31981 82.8058 7.16668C82.8058 7.01355 82.6526 6.86041 82.4995 6.86041L79.1306 5.78848C78.6712 5.63534 78.3649 5.32907 78.2118 4.86967L77.1398 1.50073C77.1398 1.34759 76.9867 1.19446 76.8336 1.19446C76.6804 1.19446 76.5273 1.34759 76.5273 1.50073L75.4553 4.86967C75.3022 5.32907 74.9959 5.63534 74.5365 5.78848L71.1676 6.86041C71.0145 6.86041 70.8613 7.01355 70.8613 7.16668C70.8613 7.31981 71.0145 7.47295 71.1676 7.47295L74.5365 8.54489C74.9959 8.69802 75.3022 9.00429 75.4553 9.46369L76.5273 12.8326C76.5273 12.9858 76.6804 13.1389 76.8336 13.1389C76.9867 13.1389 77.1398 12.9858 77.1398 12.8326L78.518 8.85115V8.85115Z" fill="white" stroke="#45413C" stroke-width="1.19444" stroke-miterlimit="10" stroke-linecap="round" stroke-linejoin="round"/>
<path opacity="0.15" d="M44.7642 83.3125C59.5079 83.3125 71.46 82.1093 71.46 80.625C71.46 79.1407 59.5079 77.9375 44.7642 77.9375C30.0205 77.9375 18.0684 79.1407 18.0684 80.625C18.0684 82.1093 30.0205 83.3125 44.7642 83.3125Z" fill="#45413C"/>
<path d="M44.7639 71.6667C63.2678 71.6667 78.2681 56.6663 78.2681 38.1625C78.2681 19.6586 63.2678 4.65833 44.7639 4.65833C26.2601 4.65833 11.2598 19.6586 11.2598 38.1625C11.2598 56.6663 26.2601 71.6667 44.7639 71.6667Z" stroke="#45413C" stroke-width="1.19444" stroke-miterlimit="10" stroke-linecap="round" stroke-linejoin="round"/>
<path d="M53.1835 51.6C50.8543 53.2125 47.9876 54.1083 44.7626 54.1083C41.7168 54.1083 38.8501 53.2125 36.3418 51.6" stroke="#45413C" stroke-width="1.19444" stroke-miterlimit="10" stroke-linecap="round"/>
<path d="M64.8298 49.0916C67.1057 49.0916 68.9506 47.9686 68.9506 46.5833C68.9506 45.198 67.1057 44.075 64.8298 44.075C62.5539 44.075 60.709 45.198 60.709 46.5833C60.709 47.9686 62.5539 49.0916 64.8298 49.0916Z" fill="#FFAA54"/>
<path d="M24.697 49.0916C26.9729 49.0916 28.8178 47.9686 28.8178 46.5833C28.8178 45.198 26.9729 44.075 24.697 44.075C22.4211 44.075 20.5762 45.198 20.5762 46.5833C20.5762 47.9686 22.4211 49.0916 24.697 49.0916Z" fill="#FFAA54"/>
<path d="M68.7715 44.075H58.9173C54.259 44.075 50.1381 40.6708 49.4215 36.0125L48.1673 27.95C47.6298 25.0833 49.959 22.3958 53.0048 22.3958H74.5048C77.3715 22.3958 79.7006 24.9042 79.3423 27.7708L78.4465 35.475C77.7298 40.3125 73.609 44.075 68.7715 44.075V44.075Z" fill="#656769"/>
<path d="M49.4235 36.0125C49.961 38.7 51.3943 41.0292 53.5443 42.4625L73.611 22.3958H52.8277C49.7818 22.3958 47.6318 25.0833 47.9902 27.95L49.4235 36.0125V36.0125Z" fill="#87898C"/>
<path d="M68.7715 44.075H58.9173C54.259 44.075 50.1381 40.6708 49.4215 36.0125L48.1673 27.95C47.6298 25.0833 49.959 22.3958 53.0048 22.3958H74.5048C77.3715 22.3958 79.7006 24.9042 79.3423 27.7708L78.4465 35.475C77.7298 40.3125 73.609 44.075 68.7715 44.075V44.075Z" stroke="#45413C" stroke-width="1.19444" stroke-miterlimit="10" stroke-linecap="round" stroke-linejoin="round"/>
<path d="M20.7552 44.075H30.4302C35.0886 44.075 39.2094 40.6708 39.9261 36.0125L41.1803 27.95C41.7178 25.0833 39.3886 22.3958 36.3427 22.3958H14.8427C11.9761 22.3958 9.64691 24.9042 10.0052 27.7708L10.9011 35.475C11.7969 40.3125 15.9177 44.075 20.7552 44.075V44.075Z" fill="#656769"/>
<path d="M11.259 35.475C11.6174 38.7 13.5882 41.3875 16.4549 43L37.059 22.3958H15.3799C12.5132 22.3958 10.184 24.9042 10.5424 27.7708L11.259 35.475V35.475Z" fill="#87898C"/>
<path d="M20.7552 44.075H30.4302C35.0886 44.075 39.2094 40.6708 39.9261 36.0125L41.1803 27.95C41.7178 25.0833 39.3886 22.3958 36.3427 22.3958H14.8427C11.9761 22.3958 9.64691 24.9042 10.0052 27.7708L10.9011 35.475C11.7969 40.3125 15.9177 44.075 20.7552 44.075V44.075Z" stroke="#45413C" stroke-width="1.19444" stroke-miterlimit="10" stroke-linecap="round" stroke-linejoin="round"/>
<path d="M49.7794 23.4708C48.3461 22.7542 46.7336 22.2167 44.7628 22.2167C42.9711 22.2167 41.1794 22.575 39.7461 23.4708" stroke="#45413C" stroke-width="1.19444" stroke-miterlimit="10" stroke-linecap="round" stroke-linejoin="round"/>
</svg>
