<svg width="32" height="32" viewBox="0 0 32 32" fill="none" xmlns="http://www.w3.org/2000/svg">
<path d="M24.8728 15.0713C23.1927 15.0713 21.8342 16.4363 21.8342 18.1098C21.8342 18.5102 22.1624 18.8383 22.5627 18.8383C22.963 18.8383 23.2912 18.5102 23.2912 18.1098C23.2912 17.237 24.0065 16.5217 24.8793 16.5217C25.2797 16.5217 25.6078 16.1935 25.6078 15.7932C25.6012 15.3929 25.2731 15.0713 24.8728 15.0713Z" fill="#5762F7"/>
<path d="M29.8277 12.9778C29.6505 12.8071 29.4601 12.6431 29.2633 12.4856L26.5725 10.2017C25.5356 9.4667 24.3018 9.00075 22.963 8.90887L23.1074 9.05325L21.4733 7.41256H21.4602C21.0073 6.99911 20.397 6.74316 19.7342 6.74316C18.5922 6.74316 17.6275 7.48475 17.2994 8.5151C16.9713 8.3051 16.5906 8.1804 16.1772 8.15415C16.1115 8.14759 16.0393 8.14759 15.9737 8.14759C15.5078 8.14759 15.0746 8.28541 14.7071 8.5151C14.3724 7.49132 13.4077 6.74973 12.2723 6.74973C11.6095 6.74973 11.0057 6.99911 10.5463 7.41913H10.5332L8.89908 9.05981L9.04346 8.91543C7.70466 9.00731 6.4643 9.47983 5.43395 10.2083L2.74323 12.4921C2.54634 12.6431 2.35602 12.8071 2.17883 12.9843C0.833468 14.2838 0 16.1016 0 18.1164C0 22.054 3.20262 25.2567 7.14026 25.2567C10.776 25.2567 13.7883 22.52 14.2215 18.9958C14.7465 19.2977 15.3568 19.4683 16 19.4683C16.6497 19.4683 17.2534 19.2977 17.7785 18.9958C18.2182 22.5134 21.2239 25.2501 24.8597 25.2501C28.7973 25.2501 31.9999 22.0475 31.9999 18.1098C32.0065 16.0951 31.173 14.2772 29.8277 12.9778ZM7.14026 22.986C4.44954 22.986 2.27071 20.8071 2.27071 18.1164C2.27071 15.4257 4.44954 13.2468 7.14026 13.2468C9.83099 13.2468 12.0098 15.4257 12.0098 18.1164C12.0164 20.8006 9.83099 22.986 7.14026 22.986ZM16.0065 17.447C15.1337 17.447 14.4249 16.7382 14.4249 15.8654C14.4249 14.9925 15.1337 14.2838 16.0065 14.2838C16.8794 14.2838 17.5881 14.9925 17.5881 15.8654C17.5881 16.7382 16.8794 17.447 16.0065 17.447ZM24.8728 22.986C22.1821 22.986 20.0032 20.8071 20.0032 18.1164C20.0032 15.4257 22.1821 13.2468 24.8728 13.2468C27.5635 13.2468 29.7423 15.4257 29.7423 18.1164C29.7423 20.8006 27.5635 22.986 24.8728 22.986Z" fill="#5762F7"/>
<path d="M7.14011 15.0713C5.46005 15.0713 4.10156 16.4363 4.10156 18.1098C4.10156 18.5102 4.4297 18.8383 4.83003 18.8383C5.23035 18.8383 5.55849 18.5102 5.55849 18.1098C5.55849 17.237 6.27383 16.5217 7.14668 16.5217C7.547 16.5217 7.87514 16.1935 7.87514 15.7932C7.86858 15.3929 7.54044 15.0713 7.14011 15.0713Z" fill="#5762F7"/>
</svg>
