<svg width="32" height="32" viewBox="0 0 32 32" fill="none" xmlns="http://www.w3.org/2000/svg">
<path d="M19.75 1.875H18.6523C18.265 0.783687 17.2222 0 16 0C14.7778 0 13.735 0.783687 13.3477 1.875H12.25C10.6991 1.875 9.4375 3.13663 9.4375 4.6875C9.4375 5.20569 9.85681 5.625 10.375 5.625H21.625C22.1432 5.625 22.5625 5.20569 22.5625 4.6875C22.5625 3.13663 21.3009 1.875 19.75 1.875Z" fill="#5762F7"/>
<path d="M25.375 3.75H24.3426C24.4044 4.05306 24.4375 4.3665 24.4375 4.6875C24.4375 6.23837 23.1759 7.5 21.625 7.5H10.375C8.82412 7.5 7.5625 6.23837 7.5625 4.6875C7.5625 4.3665 7.59556 4.05306 7.65737 3.75H6.625C5.07412 3.75 3.8125 5.01163 3.8125 6.5625V29.1875C3.8125 30.7384 5.07412 32 6.625 32H25.375C26.9259 32 28.1875 30.7384 28.1875 29.1875V6.5625C28.1875 5.01163 26.9259 3.75 25.375 3.75ZM13.1875 26.25H9.4375C8.91931 26.25 8.5 25.8307 8.5 25.3125C8.5 24.7943 8.91931 24.375 9.4375 24.375H13.1875C13.7057 24.375 14.125 24.7943 14.125 25.3125C14.125 25.8307 13.7057 26.25 13.1875 26.25ZM13.1875 19.6875H9.4375C8.91931 19.6875 8.5 19.2682 8.5 18.75C8.5 18.2318 8.91931 17.8125 9.4375 17.8125H13.1875C13.7057 17.8125 14.125 18.2318 14.125 18.75C14.125 19.2682 13.7057 19.6875 13.1875 19.6875ZM13.1875 13.125H9.4375C8.91931 13.125 8.5 12.7057 8.5 12.1875C8.5 11.6693 8.91931 11.25 9.4375 11.25H13.1875C13.7057 11.25 14.125 11.6693 14.125 12.1875C14.125 12.7057 13.7057 13.125 13.1875 13.125ZM22.2878 26.5247C22.654 26.8909 22.654 27.4842 22.2878 27.8504C22.1047 28.0335 21.8648 28.1251 21.625 28.1251C21.3852 28.1251 21.1452 28.0335 20.9622 27.8504L19.75 26.6382L18.5378 27.8504C18.3547 28.0335 18.1148 28.1251 17.875 28.1251C17.6352 28.1251 17.3952 28.0335 17.2122 27.8504C16.846 27.4842 16.846 26.8909 17.2122 26.5247L18.4243 25.3125L17.2121 24.1003C16.8459 23.7341 16.8459 23.1408 17.2121 22.7746C17.5783 22.4084 18.1716 22.4084 18.5378 22.7746L19.75 23.9868L20.9622 22.7746C21.3284 22.4084 21.9217 22.4084 22.2879 22.7746C22.6541 23.1408 22.6541 23.7341 22.2879 24.1003L21.0757 25.3125L22.2878 26.5247ZM23.2253 17.5378L20.4128 20.3503C20.2297 20.5334 19.9898 20.625 19.75 20.625C19.5102 20.625 19.2702 20.5334 19.0872 20.3503L17.2122 18.4753C16.846 18.1091 16.846 17.5158 17.2122 17.1496C17.5784 16.7834 18.1717 16.7834 18.5379 17.1496L19.75 18.3618L21.8997 16.2121C22.2659 15.8459 22.8592 15.8459 23.2254 16.2121C23.5916 16.5783 23.5916 17.1716 23.2253 17.5378ZM23.2253 11.9128L20.4128 14.7253C20.2297 14.9084 19.9898 15 19.75 15C19.5102 15 19.2702 14.9084 19.0872 14.7253L17.2122 12.8503C16.846 12.4841 16.846 11.8908 17.2122 11.5246C17.5784 11.1584 18.1717 11.1584 18.5379 11.5246L19.75 12.7368L21.8997 10.5871C22.2659 10.2209 22.8592 10.2209 23.2254 10.5871C23.5916 10.9533 23.5916 11.5466 23.2253 11.9128Z" fill="#5762F7"/>
</svg>
