<svg width="32" height="32" viewBox="0 0 32 32" fill="none" xmlns="http://www.w3.org/2000/svg">
<path d="M10.0608 22.6616L9.11792 24.5475H10.9505C11.2617 24.5475 11.5507 24.7086 11.7142 24.9732C11.8777 25.2378 11.8927 25.5684 11.7534 25.8467L10.4256 28.5025L15.1022 32.0001V29.4595L11.4296 22.114L10.0608 22.6616Z" fill="#5762F7"/>
<path d="M8.5051 28.3289L9.49807 26.3429H7.66556C7.35439 26.3429 7.06542 26.1818 6.90187 25.9172C6.73842 25.6526 6.72344 25.3221 6.86265 25.0439L7.552 23.6652L6.92514 23.9159C4.3979 24.9268 2.49492 27.1069 1.83466 29.7475L1.27148 32H11.7663L8.72641 29.4142C8.41169 29.1464 8.32043 28.6984 8.5051 28.3289Z" fill="#5762F7"/>
<path d="M30.1655 29.7475C29.5053 27.1068 27.6023 24.9267 25.075 23.9159L24.4482 23.6652L25.1375 25.0439C25.2767 25.3221 25.2618 25.6526 25.0983 25.9172C24.9347 26.1818 24.6457 26.3429 24.3346 26.3429H22.502L23.495 28.3289C23.6798 28.6985 23.5885 29.1464 23.2738 29.4142L20.2339 32H30.7285L30.1655 29.7475Z" fill="#5762F7"/>
<path d="M20.2466 25.8467C20.1074 25.5684 20.1224 25.2378 20.2858 24.9732C20.4495 24.7086 20.7385 24.5475 21.0495 24.5475H22.8821L21.9393 22.6616L20.5705 22.114L16.8977 29.4595V32L21.5744 28.5025L20.2466 25.8467Z" fill="#5762F7"/>
<path d="M9.2562 4.89999C9.33733 4.64194 9.53052 4.43432 9.78188 4.33476C10.033 4.23499 10.3161 4.25406 10.5521 4.38659C10.6262 4.42807 17.8571 8.42925 25.0887 8.2602C25.1227 7.87954 25.1405 7.50298 25.1405 7.13277C25.1405 4.56663 24.3064 2.74737 22.5905 1.57112C21.0698 0.528593 18.8525 0 16.0001 0C13.1477 0 10.9305 0.528593 9.40984 1.57112C7.69391 2.74737 6.85986 4.56663 6.85986 7.13277C6.85986 7.39502 6.86891 7.6605 6.88615 7.92824C8.65865 6.73789 9.24973 4.92035 9.2562 4.89999Z" fill="#5762F7"/>
<path d="M16 22.0838C15.0197 22.0838 14.0493 21.8704 13.1089 21.4578L16 27.2401L18.8912 21.4578C17.9508 21.8704 16.9803 22.0838 16 22.0838Z" fill="#5762F7"/>
<path d="M7.14575 9.85567C8.18182 14.9995 11.899 20.2883 16.0001 20.2883C20.0472 20.2883 23.7201 15.1393 24.812 10.0605C24.828 10.0604 24.844 10.0603 24.812 10.0603C18.7099 10.0603 12.7073 7.48487 10.5472 6.40894C10.0334 7.39307 8.99443 8.89912 7.14575 9.85567Z" fill="#5762F7"/>
</svg>
