<svg width="36" height="36" viewBox="0 0 36 36" fill="none" xmlns="http://www.w3.org/2000/svg">
<path d="M31.7143 17.1428H29.1429V10.2857C29.1429 8.39146 27.6086 6.85712 25.7143 6.85712H18.8572V4.28569C18.8572 1.91997 16.9371 0 14.5714 0C12.2057 0 10.2857 1.91997 10.2857 4.28569V6.85712H3.4286C1.53434 6.85712 0.0171964 8.39137 0.0171964 10.2857L0.00859821 16.8H2.57143C5.12574 16.8 7.2 18.8743 7.2 21.4286C7.2 23.9829 5.12574 26.0572 2.57143 26.0572H0.00859821L0 32.5714C0 34.4657 1.53426 36 3.4286 36H9.94291V33.4286C9.94291 30.8743 12.0172 28.8 14.5715 28.8C17.1258 28.8 19.2001 30.8743 19.2001 33.4286V36H25.7143C27.6085 36 29.1429 34.4657 29.1429 32.5714V25.7143H31.7143C34.08 25.7143 36 23.7943 36 21.4286C36 19.0629 34.08 17.1428 31.7143 17.1428Z" fill="#5762F7"/>
</svg>
